<?xml version="1.0" encoding="utf-8"?>
<!-- Generator: Adobe Illustrator 21.0.2, SVG Export Plug-In . SVG Version: 6.00 Build 0)  -->
<svg version="1.1" id="Layer_1" xmlns="http://www.w3.org/2000/svg" xmlns:xlink="http://www.w3.org/1999/xlink" x="0px" y="0px"
	 viewBox="0 0 565.7 167.4" style="enable-background:new 0 0 565.7 167.4;" xml:space="preserve">
<style type="text/css">
	.st0{fill:#50B848;}
	.st1{fill:#0066B3;}
</style>
<g>
	<g>
		<path class="st0" d="M226,53.7h-21.4c-1.9,1.6-2.8,3.8-2.8,6.7c0,3,0.9,5.2,2.8,6.7H226c1.9-1.5,2.8-3.7,2.8-6.7
			C228.8,57.5,227.9,55.3,226,53.7z"/>
		<path class="st0" d="M193.6,53.7h-7.2c-1.9,1.6-2.8,3.8-2.8,6.7c0,3,0.9,5.2,2.8,6.7h7.2c1.9-1.5,2.8-3.7,2.8-6.7
			C196.4,57.5,195.4,55.3,193.6,53.7z"/>
		<path class="st1" d="M330,15.8c-1.6-3.7-3.7-7.3-7.4-10.7c-3.7-3.4-7-5.1-9.8-5.1l-68.2,0.1c-3.1,0.6-5.7,2.8-7.6,6.6
			C235,10.4,234,15,234,20.4c0,5.2,0.9,9.7,2.8,13.3c1.9,3.6,4.3,5.8,7.3,6.7h34.1c2.1,1.2,3.1,3.5,3.1,6.9c0,3.3-1,5.4-3.1,6.5
			h-41.5c-1.9,1.6-2.8,3.8-2.8,6.7c0,3,0.9,5.2,2.8,6.7h46c3-1,5.4-3.2,7.3-6.7c1.8-3.5,2.8-7.9,2.8-13.1c0-5.2-0.9-9.7-2.8-13.5
			c-1.9-3.7-4.3-6.1-7.3-7h-34.1c-2.1-1.1-3.1-3.3-3.1-6.5c0-3.4,1-5.8,3.1-7l60.4,0l1.9,0.9c3.4,1.9,5.5,4,7.2,7.9
			c1.4,3.4,2.2,7.1,2.2,11.2c0,4.5-0.8,8.4-2.5,11.8c-1.7,3.4-3.8,6.7-6.8,8.1c-0.1,0.1-0.4,0.2-0.5,0.2h-10.4
			c-2.3,1.6-3.4,3.2-3.4,6.1c0,3,1.1,5.2,3.4,7.4l14.2,0c0,0,0.3-0.1,0.5-0.1c4.4-1.2,8.2-4.3,11.3-8.7c3-4.2,5.2-9.5,6.5-15.8
			c0.5-2.7,0.8-5.6,0.8-8.8C333.5,26.2,332,21,330,15.8z"/>
	</g>
	<g>
		<path class="st1" d="M0,134.7h4.1v2.2c0,3.1,1.7,4.6,7.1,4.6h13.4c6.3,0,8.1-1.3,8.1-5.9c0-4-1.6-5-7-5h-8.2
			c-13.2,0-17.5-0.8-17.5-9.3c0-7.3,4.3-8.9,13.2-8.9h9.3c10.7,0,13.4,2.7,13.4,8.4v1.1h-4.1c-0.1-5.1-0.6-6-12-6h-4.6
			c-8.3,0-11.3,0.4-11.3,5.7c0,3.8,1.2,5.1,7.9,5.1h12.8c8.4,0,12,2.4,12,7.8v2.1c0,7.9-6.4,8.4-12.8,8.4h-12C5.6,145.1,0,144,0,137
			V134.7z"/>
		<path class="st1" d="M78.2,134.8c0,5.6-3.4,6.8-7.5,6.8H53.2c-4.1,0-7.5-1.2-7.5-6.8v-12c0-5.6,3.4-6.8,7.5-6.8h17.5
			c4.1,0,7.5,1.2,7.5,6.8V134.8z M41.3,133.2c0,8.1,2.7,12,11.4,12h18.4c8.6,0,11.4-3.9,11.4-12v-8.7c0-8.1-2.7-12-11.4-12H52.7
			c-8.6,0-11.4,3.9-11.4,12V133.2z"/>
		<path class="st1" d="M87.9,112.8h30.4v3.5H92.2v10.2h25.1v3.5H92.2v14.7h-4.3V112.8z"/>
		<path class="st1" d="M135.4,116.4h-14.3v-3.5h32.3v3.5h-13.7v28.4h-4.3V116.4z"/>
		<path class="st1" d="M154.7,112.8h4.2l11.2,27.9l10.9-27.9h5.6l10.8,28.1l11.3-28.1h4.2l-12.7,31.9h-5.6l-10.9-28.1l-10.8,28.1
			h-5.6L154.7,112.8z"/>
		<path class="st1" d="M242.3,134.5h-21.4l10.7-18.1L242.3,134.5z M210,144.8h4.9l4-6.7h25.6l4,6.7h4.9l-19-31.9h-5.4L210,144.8z"/>
		<path class="st1" d="M260,128.6v-12.3h19.7c6.3,0,7.9,1.1,7.9,4.7v2.9c0,3.4-2,4.6-6.8,4.6H260z M255.7,144.8h4.3v-12.6h21.1
			c3.9,0,6.4,0.6,6.4,5.6v7h4.1v-8.2c0-2.9-1.1-5.2-5.5-6v-0.1c3.3-0.3,5.9-1.5,5.9-6v-2.6c0-6-1.5-9-10.7-9h-25.5V144.8z"/>
		<path class="st1" d="M297.3,112.8h31.4v3.5h-27v10.2h26v3.5h-26v11.2h27.2v3.5h-31.5V112.8z"/>
		<path class="st0" d="M342.4,120.8h17.4c4.2,0,5.8,1.2,5.8,5.7v4.3c0,4.5-1.6,5.7-5.8,5.7h-17.4V120.8z M332.6,144.8h29.6
			c9.8,0,13.2-3.2,13.2-11.1v-9.7c0-7.9-3.4-11.1-13.2-11.1h-29.6V144.8z"/>
		<path class="st0" d="M379.1,112.8h34.9v7.4h-25.1v5.1h23.8v6.6h-23.8v5.1h25.7v7.7h-35.5V112.8z"/>
		<path class="st0" d="M417.8,134.3h9.8c0,3.4,1.4,3.7,4.2,3.7h12c2.1,0,4.2-0.2,4.2-2.7c0-2.8-1.1-3-13.8-3
			c-14.7,0-16.4-1.8-16.4-9.6c0-5.8,0.5-10.2,12.9-10.2h13.7c11.3,0,12.4,3.8,12.4,9.4v1h-9.8c0-2.3-0.3-3.3-4.8-3.3h-10.9
			c-2.2,0-3.7,0.8-3.7,2.5c0,2.8,1.2,2.9,11.7,2.8c15.2,0,18.7,0.9,18.7,10.2c0,8.6-2.9,10-15.9,10h-11.9c-8.9,0-12.5-1.7-12.5-8.6
			V134.3z"/>
		<path class="st0" d="M462.4,112.8h9.8v31.9h-9.8V112.8z"/>
		<path class="st0" d="M476.4,124c0-9.4,5.2-11.6,14.1-11.6h14.7c11.1,0,12.7,4,12.7,10.2v1h-9.6c0-3.2-1.8-3.6-4.9-3.6h-10.6
			c-4.9,0-6.2,1.2-6.2,6.7v4c0,5.5,1.3,6.7,6.2,6.7h10.5c2.6,0,5.1-0.4,5.1-3.5V133h-12.2v-6.6h22v9.1c0,9.2-4.8,9.6-15.8,9.6h-11.8
			c-8.8,0-14.1-2.2-14.1-11.6V124z"/>
		<path class="st0" d="M521.8,112.8H537l18.4,23.2h0.1v-23.2h9.8v31.9h-15.2l-18.4-23.2h-0.1v23.2h-9.8V112.8z"/>
		<g>
			<path class="st1" d="M344,157.2c-1.6-0.9-2.9-1.3-4.4-1.3c-2.9,0-5.1,2.1-5.1,4.9c0,2.9,2.1,4.9,5.2,4.9c1.5,0,3-0.5,4.5-1.5v2
				c-1.3,0.7-2.6,1.1-4.7,1.1c-4.8,0-7-3.7-7-6.4c0-3.9,3-6.8,7.1-6.8c1.3,0,2.7,0.3,4.4,1.1V157.2z"/>
			<path class="st1" d="M350.9,160.8c0-2.8,2.1-4.9,5-4.9c2.9,0,5,2.1,5,4.9c0,2.8-2.1,4.9-5,4.9
				C353.1,165.7,350.9,163.6,350.9,160.8z M349,160.8c0,3.5,2.7,6.6,6.9,6.6c4.4,0,7-3.1,7-6.6c0-3.6-2.7-6.6-6.9-6.6
				C351.8,154.2,349,157.2,349,160.8z"/>
			<path class="st1" d="M380.3,167.2h-1.6l-8.6-9.9v9.9h-1.7v-12.9h1.5l8.7,10v-10h1.7V167.2z"/>
			<path class="st1" d="M392.5,157.2c-1.1-1-2.2-1.3-3-1.3c-1.2,0-2,0.6-2,1.5c0,2.5,5.6,2.4,5.6,6.5c0,2-1.5,3.5-3.6,3.5
				c-1.4,0-2.5-0.4-3.6-1.2v-2.3c0.9,1.2,2.1,1.9,3.4,1.9c1.4,0,2.1-0.9,2.1-1.6c0-2.7-5.6-3-5.6-6.5c0-2.1,1.6-3.4,3.9-3.4
				c1,0,2,0.3,2.9,0.9V157.2z"/>
			<path class="st1" d="M409,162.1c0,3.2-1.9,5.2-5.7,5.2c-2.7,0-5.4-1.5-5.4-5v-8h1.9v7.6c0,1.5,0.2,2.1,0.8,2.6
				c0.7,0.7,1.7,1.1,2.8,1.1c1.4,0,2.4-0.5,3-1c0.7-0.7,0.8-1.6,0.8-2.8v-7.5h1.9V162.1z"/>
			<path class="st1" d="M416.6,165.6h5.8v1.7h-7.7v-12.9h1.9V165.6z"/>
			<path class="st1" d="M435.1,156h-4.5v11.2h-1.9V156h-4.5v-1.7h10.8V156z"/>
			<path class="st1" d="M441.9,167.2H440v-12.9h1.9V167.2z"/>
			<path class="st1" d="M459.9,167.2h-1.6l-8.6-9.9v9.9H448v-12.9h1.5l8.7,10v-10h1.7V167.2z"/>
			<path class="st1" d="M477.3,166.3c-1.7,0.8-3.1,1.1-4.9,1.1c-4,0-6.9-2.8-6.9-6.5c0-3.8,3-6.7,6.9-6.7c1.5,0,2.6,0.2,4.6,1.1v1.9
				c-1.5-0.8-3.1-1.3-4.6-1.3c-2.8,0-5,2.1-5,4.9c0,2.9,2.2,4.9,5.2,4.9c1,0,1.9-0.2,2.8-0.5v-2.6h-2.5v-1.7h4.3V166.3z"/>
			<path class="st1" d="M502.9,166.3c-1.7,0.8-3.1,1.1-4.9,1.1c-4,0-6.9-2.8-6.9-6.5c0-3.8,3-6.7,6.9-6.7c1.5,0,2.6,0.2,4.6,1.1v1.9
				c-1.5-0.8-3.1-1.3-4.6-1.3c-2.8,0-5,2.1-5,4.9c0,2.9,2.2,4.9,5.2,4.9c1,0,1.9-0.2,2.8-0.5v-2.6h-2.5v-1.7h4.3V166.3z"/>
			<path class="st1" d="M510.7,155.9h1.2c1.8,0,2.5,0.7,2.5,1.9c0,1.1-0.5,2.1-2.5,2.1h-1.2V155.9z M508.9,154.3v12.9h1.9v-5.6h0.8
				c0.9,0,1.7,0.3,3.4,2.9l1.7,2.6h2.2c-0.9-1.2-1.2-1.7-1.8-2.6c-1-1.6-1.7-2.8-2.9-3.6c1.4-0.5,2.2-1.7,2.2-3.2
				c0-2.2-1.6-3.6-4.2-3.6H508.9z"/>
			<path class="st1" d="M523.7,160.8c0-2.8,2.1-4.9,5-4.9c2.9,0,5,2.1,5,4.9c0,2.8-2.1,4.9-5,4.9
				C525.8,165.7,523.7,163.6,523.7,160.8z M521.8,160.8c0,3.5,2.7,6.6,6.9,6.6c4.4,0,7-3.1,7-6.6c0-3.6-2.7-6.6-6.9-6.6
				C524.5,154.2,521.8,157.2,521.8,160.8z"/>
			<path class="st1" d="M551.9,162.1c0,3.2-1.9,5.2-5.7,5.2c-2.7,0-5.4-1.5-5.4-5v-8h1.9v7.6c0,1.5,0.2,2.1,0.8,2.6
				c0.7,0.7,1.7,1.1,2.8,1.1c1.4,0,2.4-0.5,3-1c0.7-0.7,0.8-1.6,0.8-2.8v-7.5h1.9V162.1z"/>
			<path class="st1" d="M559.5,156h2.2c1.7,0,2.2,1,2.2,2c0,1.3-0.9,2-2.3,2h-2.1V156z M557.6,154.3v12.9h1.9v-5.6h1.9
				c3,0,4.3-1.6,4.3-3.6c0-2-1.3-3.7-4.1-3.7H557.6z"/>
		</g>
	</g>
</g>
</svg>
